<mxfile host="drawio-plugin" modified="2023-02-26T07:14:47.421Z" agent="5.0 (Windows NT 6.2; Win64; x64) AppleWebKit/537.36 (KHTML, like Gecko) Chrome/104.0.5112.102 Safari/537.36" etag="BhHerwkmoyEEhn_i0d01" version="20.5.3" type="embed"><diagram name="Architecture" id="BTsHoVg87xrMJm86G8RS"><mxGraphModel dx="981" dy="753" grid="1" gridSize="10" guides="1" tooltips="1" connect="1" arrows="1" fold="1" page="1" pageScale="1" pageWidth="1000" pageHeight="1000" math="0" shadow="0"><root><mxCell id="0"/><mxCell id="1" parent="0"/><mxCell id="5" style="edgeStyle=orthogonalEdgeStyle;rounded=0;orthogonalLoop=1;jettySize=auto;html=1;exitX=0.5;exitY=0.5;exitDx=0;exitDy=0;exitPerimeter=0;entryX=0;entryY=0.5;entryDx=0;entryDy=0;" parent="1" source="zuNxQ5fB12dAEYdSNZEZ-2" target="zuNxQ5fB12dAEYdSNZEZ-42" edge="1"><mxGeometry relative="1" as="geometry"/></mxCell><mxCell id="49" style="edgeStyle=orthogonalEdgeStyle;rounded=0;orthogonalLoop=1;jettySize=auto;html=1;exitX=1;exitY=1;exitDx=0;exitDy=0;exitPerimeter=0;entryX=0;entryY=0.5;entryDx=0;entryDy=0;" parent="1" source="zuNxQ5fB12dAEYdSNZEZ-2" target="48" edge="1"><mxGeometry relative="1" as="geometry"/></mxCell><mxCell id="zuNxQ5fB12dAEYdSNZEZ-2" value="User" style="shape=umlActor;verticalLabelPosition=bottom;verticalAlign=top;html=1;outlineConnect=0;" parent="1" vertex="1"><mxGeometry x="80" y="590" width="40" height="80" as="geometry"/></mxCell><mxCell id="zuNxQ5fB12dAEYdSNZEZ-27" value="Theater Partner IT System" style="shape=cube;whiteSpace=wrap;html=1;boundedLbl=1;backgroundOutline=1;darkOpacity=0.05;darkOpacity2=0.1;fontSize=12;size=10;" parent="1" vertex="1"><mxGeometry x="360" y="40" width="120" height="80" as="geometry"/></mxCell><mxCell id="zuNxQ5fB12dAEYdSNZEZ-30" value="Payment Gateways" style="shape=cube;whiteSpace=wrap;html=1;boundedLbl=1;backgroundOutline=1;darkOpacity=0.05;darkOpacity2=0.1;fontSize=12;size=10;" parent="1" vertex="1"><mxGeometry x="240" y="170" width="120" height="80" as="geometry"/></mxCell><mxCell id="zuNxQ5fB12dAEYdSNZEZ-38" style="edgeStyle=orthogonalEdgeStyle;rounded=0;orthogonalLoop=1;jettySize=auto;html=1;exitX=0.855;exitY=0;exitDx=0;exitDy=4.35;exitPerimeter=0;fontSize=12;entryX=0;entryY=0.5;entryDx=0;entryDy=0;" parent="1" source="zuNxQ5fB12dAEYdSNZEZ-32" target="zuNxQ5fB12dAEYdSNZEZ-39" edge="1"><mxGeometry relative="1" as="geometry"><mxPoint x="930" y="60" as="targetPoint"/></mxGeometry></mxCell><mxCell id="17" style="edgeStyle=orthogonalEdgeStyle;rounded=0;orthogonalLoop=1;jettySize=auto;html=1;exitX=0.145;exitY=0;exitDx=0;exitDy=4.35;exitPerimeter=0;entryX=0;entryY=0.5;entryDx=0;entryDy=0;" parent="1" source="zuNxQ5fB12dAEYdSNZEZ-32" target="16" edge="1"><mxGeometry relative="1" as="geometry"/></mxCell><mxCell id="zuNxQ5fB12dAEYdSNZEZ-32" value="MQ" style="shape=cylinder3;whiteSpace=wrap;html=1;boundedLbl=1;backgroundOutline=1;size=15;fontSize=12;rotation=90;horizontal=0;" parent="1" vertex="1"><mxGeometry x="620" y="70" width="40" height="80" as="geometry"/></mxCell><mxCell id="zuNxQ5fB12dAEYdSNZEZ-39" value="SMS Service" style="rounded=0;whiteSpace=wrap;html=1;fontSize=12;" parent="1" vertex="1"><mxGeometry x="800" y="130" width="120" height="40" as="geometry"/></mxCell><mxCell id="6" style="edgeStyle=orthogonalEdgeStyle;rounded=0;orthogonalLoop=1;jettySize=auto;html=1;exitX=1;exitY=0.5;exitDx=0;exitDy=0;" parent="1" source="zuNxQ5fB12dAEYdSNZEZ-42" target="zuNxQ5fB12dAEYdSNZEZ-45" edge="1"><mxGeometry relative="1" as="geometry"/></mxCell><mxCell id="zuNxQ5fB12dAEYdSNZEZ-42" value="Nginx" style="rounded=0;whiteSpace=wrap;html=1;fontSize=12;" parent="1" vertex="1"><mxGeometry x="200" y="610" width="80" height="40" as="geometry"/></mxCell><mxCell id="8" style="edgeStyle=orthogonalEdgeStyle;rounded=0;orthogonalLoop=1;jettySize=auto;html=1;exitX=0.5;exitY=0;exitDx=0;exitDy=0;entryX=0;entryY=0.75;entryDx=0;entryDy=0;" parent="1" source="zuNxQ5fB12dAEYdSNZEZ-45" target="7" edge="1"><mxGeometry relative="1" as="geometry"/></mxCell><mxCell id="9" style="edgeStyle=orthogonalEdgeStyle;rounded=0;orthogonalLoop=1;jettySize=auto;html=1;exitX=1;exitY=0.25;exitDx=0;exitDy=0;entryX=0;entryY=0.5;entryDx=0;entryDy=0;" parent="1" source="zuNxQ5fB12dAEYdSNZEZ-45" target="evWbAmLp9vaaNwUIvvT5-2" edge="1"><mxGeometry relative="1" as="geometry"/></mxCell><mxCell id="11" style="edgeStyle=orthogonalEdgeStyle;rounded=0;orthogonalLoop=1;jettySize=auto;html=1;exitX=0.75;exitY=1;exitDx=0;exitDy=0;entryX=0;entryY=0.5;entryDx=0;entryDy=0;" parent="1" source="zuNxQ5fB12dAEYdSNZEZ-45" target="evWbAmLp9vaaNwUIvvT5-3" edge="1"><mxGeometry relative="1" as="geometry"/></mxCell><mxCell id="12" style="edgeStyle=orthogonalEdgeStyle;rounded=0;orthogonalLoop=1;jettySize=auto;html=1;exitX=0.5;exitY=1;exitDx=0;exitDy=0;entryX=0;entryY=0.5;entryDx=0;entryDy=0;" parent="1" source="zuNxQ5fB12dAEYdSNZEZ-45" target="2" edge="1"><mxGeometry relative="1" as="geometry"/></mxCell><mxCell id="26" style="edgeStyle=orthogonalEdgeStyle;rounded=0;orthogonalLoop=1;jettySize=auto;html=1;exitX=1;exitY=0.75;exitDx=0;exitDy=0;entryX=0;entryY=0.5;entryDx=0;entryDy=0;" parent="1" source="zuNxQ5fB12dAEYdSNZEZ-45" target="evWbAmLp9vaaNwUIvvT5-4" edge="1"><mxGeometry relative="1" as="geometry"/></mxCell><mxCell id="32" style="edgeStyle=orthogonalEdgeStyle;rounded=0;orthogonalLoop=1;jettySize=auto;html=1;exitX=0.75;exitY=0;exitDx=0;exitDy=0;entryX=0;entryY=0.5;entryDx=0;entryDy=0;" parent="1" source="zuNxQ5fB12dAEYdSNZEZ-45" target="27" edge="1"><mxGeometry relative="1" as="geometry"/></mxCell><mxCell id="50" style="edgeStyle=orthogonalEdgeStyle;rounded=0;orthogonalLoop=1;jettySize=auto;html=1;exitX=0.25;exitY=1;exitDx=0;exitDy=0;entryX=1;entryY=0.5;entryDx=0;entryDy=0;" parent="1" source="zuNxQ5fB12dAEYdSNZEZ-45" target="48" edge="1"><mxGeometry relative="1" as="geometry"/></mxCell><mxCell id="zuNxQ5fB12dAEYdSNZEZ-45" value="API Gateway" style="rounded=0;whiteSpace=wrap;html=1;fontSize=12;" parent="1" vertex="1"><mxGeometry x="360" y="610" width="120" height="40" as="geometry"/></mxCell><mxCell id="23" style="edgeStyle=orthogonalEdgeStyle;rounded=0;orthogonalLoop=1;jettySize=auto;html=1;exitX=1;exitY=0.25;exitDx=0;exitDy=0;entryX=0;entryY=0.5;entryDx=0;entryDy=0;entryPerimeter=0;" parent="1" source="evWbAmLp9vaaNwUIvvT5-2" target="22" edge="1"><mxGeometry relative="1" as="geometry"/></mxCell><mxCell id="41" style="edgeStyle=orthogonalEdgeStyle;rounded=0;orthogonalLoop=1;jettySize=auto;html=1;exitX=1;exitY=0.75;exitDx=0;exitDy=0;entryX=1;entryY=0;entryDx=0;entryDy=22.5;entryPerimeter=0;" parent="1" source="evWbAmLp9vaaNwUIvvT5-2" target="37" edge="1"><mxGeometry relative="1" as="geometry"/></mxCell><mxCell id="evWbAmLp9vaaNwUIvvT5-2" value="Show Service" style="rounded=0;whiteSpace=wrap;html=1;" parent="1" vertex="1"><mxGeometry x="560" y="490" width="120" height="40" as="geometry"/></mxCell><mxCell id="35" style="edgeStyle=orthogonalEdgeStyle;rounded=0;orthogonalLoop=1;jettySize=auto;html=1;exitX=1;exitY=0.5;exitDx=0;exitDy=0;entryX=0;entryY=0.5;entryDx=0;entryDy=0;entryPerimeter=0;" parent="1" source="evWbAmLp9vaaNwUIvvT5-3" target="33" edge="1"><mxGeometry relative="1" as="geometry"/></mxCell><mxCell id="39" style="edgeStyle=orthogonalEdgeStyle;rounded=0;orthogonalLoop=1;jettySize=auto;html=1;exitX=0.5;exitY=0;exitDx=0;exitDy=0;entryX=0;entryY=1;entryDx=0;entryDy=-15;entryPerimeter=0;" parent="1" source="evWbAmLp9vaaNwUIvvT5-3" target="37" edge="1"><mxGeometry relative="1" as="geometry"/></mxCell><mxCell id="25" style="edgeStyle=orthogonalEdgeStyle;rounded=0;orthogonalLoop=1;jettySize=auto;html=1;exitX=0.5;exitY=0;exitDx=0;exitDy=0;entryX=0;entryY=0.5;entryDx=0;entryDy=0;entryPerimeter=0;" parent="1" source="evWbAmLp9vaaNwUIvvT5-4" target="24" edge="1"><mxGeometry relative="1" as="geometry"/></mxCell><mxCell id="40" style="edgeStyle=orthogonalEdgeStyle;rounded=0;orthogonalLoop=1;jettySize=auto;html=1;exitX=1;exitY=0.5;exitDx=0;exitDy=0;entryX=0;entryY=0.5;entryDx=0;entryDy=0;entryPerimeter=0;" parent="1" source="evWbAmLp9vaaNwUIvvT5-4" target="37" edge="1"><mxGeometry relative="1" as="geometry"/></mxCell><mxCell id="evWbAmLp9vaaNwUIvvT5-4" value="Theater Service" style="rounded=0;whiteSpace=wrap;html=1;" parent="1" vertex="1"><mxGeometry x="560" y="610" width="120" height="40" as="geometry"/></mxCell><mxCell id="36" style="edgeStyle=orthogonalEdgeStyle;rounded=0;orthogonalLoop=1;jettySize=auto;html=1;exitX=1;exitY=0.5;exitDx=0;exitDy=0;entryX=0;entryY=0.5;entryDx=0;entryDy=0;entryPerimeter=0;" parent="1" source="2" target="34" edge="1"><mxGeometry relative="1" as="geometry"/></mxCell><mxCell id="38" style="edgeStyle=orthogonalEdgeStyle;rounded=0;orthogonalLoop=1;jettySize=auto;html=1;exitX=0.25;exitY=1;exitDx=0;exitDy=0;entryX=1;entryY=0;entryDx=0;entryDy=37.5;entryPerimeter=0;" parent="1" source="2" target="37" edge="1"><mxGeometry relative="1" as="geometry"/></mxCell><mxCell id="2" value="Place Service" style="rounded=0;whiteSpace=wrap;html=1;" parent="1" vertex="1"><mxGeometry x="560" y="850" width="120" height="40" as="geometry"/></mxCell><mxCell id="13" style="edgeStyle=orthogonalEdgeStyle;rounded=0;orthogonalLoop=1;jettySize=auto;html=1;exitX=0;exitY=0.25;exitDx=0;exitDy=0;entryX=0;entryY=0;entryDx=120;entryDy=45;entryPerimeter=0;" parent="1" source="7" target="zuNxQ5fB12dAEYdSNZEZ-30" edge="1"><mxGeometry relative="1" as="geometry"/></mxCell><mxCell id="14" style="edgeStyle=orthogonalEdgeStyle;rounded=0;orthogonalLoop=1;jettySize=auto;html=1;exitX=0.25;exitY=0;exitDx=0;exitDy=0;entryX=0;entryY=0;entryDx=65;entryDy=80;entryPerimeter=0;" parent="1" source="7" target="zuNxQ5fB12dAEYdSNZEZ-27" edge="1"><mxGeometry relative="1" as="geometry"/></mxCell><mxCell id="15" style="edgeStyle=orthogonalEdgeStyle;rounded=0;orthogonalLoop=1;jettySize=auto;html=1;exitX=0.75;exitY=0;exitDx=0;exitDy=0;entryX=1;entryY=0.5;entryDx=0;entryDy=0;entryPerimeter=0;" parent="1" source="7" target="zuNxQ5fB12dAEYdSNZEZ-32" edge="1"><mxGeometry relative="1" as="geometry"/></mxCell><mxCell id="20" style="edgeStyle=orthogonalEdgeStyle;rounded=0;orthogonalLoop=1;jettySize=auto;html=1;exitX=1;exitY=0.25;exitDx=0;exitDy=0;entryX=0;entryY=0.5;entryDx=0;entryDy=0;entryPerimeter=0;" parent="1" source="7" target="18" edge="1"><mxGeometry relative="1" as="geometry"/></mxCell><mxCell id="21" style="edgeStyle=orthogonalEdgeStyle;rounded=0;orthogonalLoop=1;jettySize=auto;html=1;entryX=0;entryY=0.5;entryDx=0;entryDy=0;entryPerimeter=0;exitX=1;exitY=0.75;exitDx=0;exitDy=0;" parent="1" source="27" target="19" edge="1"><mxGeometry relative="1" as="geometry"><mxPoint x="680" y="450" as="sourcePoint"/></mxGeometry></mxCell><mxCell id="30" style="edgeStyle=orthogonalEdgeStyle;rounded=0;orthogonalLoop=1;jettySize=auto;html=1;exitX=1;exitY=0.75;exitDx=0;exitDy=0;entryX=0;entryY=0.5;entryDx=0;entryDy=0;entryPerimeter=0;" parent="1" source="7" target="29" edge="1"><mxGeometry relative="1" as="geometry"/></mxCell><mxCell id="7" value="Booking Service" style="rounded=0;whiteSpace=wrap;html=1;" parent="1" vertex="1"><mxGeometry x="560" y="250" width="120" height="40" as="geometry"/></mxCell><mxCell id="16" value="Email Service" style="rounded=0;whiteSpace=wrap;html=1;fontSize=12;" parent="1" vertex="1"><mxGeometry x="800" y="50" width="120" height="40" as="geometry"/></mxCell><mxCell id="18" value="Booking DB" style="shape=cylinder3;whiteSpace=wrap;html=1;boundedLbl=1;backgroundOutline=1;size=15;" parent="1" vertex="1"><mxGeometry x="800" y="210" width="60" height="60" as="geometry"/></mxCell><mxCell id="19" value="Availability Cache" style="shape=cylinder3;whiteSpace=wrap;html=1;boundedLbl=1;backgroundOutline=1;size=15;" parent="1" vertex="1"><mxGeometry x="800" y="370" width="60" height="60" as="geometry"/></mxCell><mxCell id="22" value="Show DB" style="shape=cylinder3;whiteSpace=wrap;html=1;boundedLbl=1;backgroundOutline=1;size=15;" parent="1" vertex="1"><mxGeometry x="800" y="450" width="60" height="60" as="geometry"/></mxCell><mxCell id="24" value="Theater DB" style="shape=cylinder3;whiteSpace=wrap;html=1;boundedLbl=1;backgroundOutline=1;size=15;" parent="1" vertex="1"><mxGeometry x="800" y="540" width="60" height="60" as="geometry"/></mxCell><mxCell id="31" style="edgeStyle=orthogonalEdgeStyle;rounded=0;orthogonalLoop=1;jettySize=auto;html=1;exitX=1;exitY=0.25;exitDx=0;exitDy=0;entryX=0;entryY=0;entryDx=0;entryDy=52.5;entryPerimeter=0;" parent="1" source="27" target="29" edge="1"><mxGeometry relative="1" as="geometry"/></mxCell><mxCell id="27" value="Seat Service" style="rounded=0;whiteSpace=wrap;html=1;" parent="1" vertex="1"><mxGeometry x="560" y="370" width="120" height="40" as="geometry"/></mxCell><mxCell id="29" value="Seat DB" style="shape=cylinder3;whiteSpace=wrap;html=1;boundedLbl=1;backgroundOutline=1;size=15;" parent="1" vertex="1"><mxGeometry x="800" y="290" width="60" height="60" as="geometry"/></mxCell><mxCell id="33" value="Movie DB" style="shape=cylinder3;whiteSpace=wrap;html=1;boundedLbl=1;backgroundOutline=1;size=15;" parent="1" vertex="1"><mxGeometry x="800" y="710" width="60" height="60" as="geometry"/></mxCell><mxCell id="34" value="Place DB" style="shape=cylinder3;whiteSpace=wrap;html=1;boundedLbl=1;backgroundOutline=1;size=15;" parent="1" vertex="1"><mxGeometry x="800" y="810" width="60" height="60" as="geometry"/></mxCell><mxCell id="37" value="Cache" style="shape=cylinder3;whiteSpace=wrap;html=1;boundedLbl=1;backgroundOutline=1;size=15;" parent="1" vertex="1"><mxGeometry x="800" y="620" width="60" height="60" as="geometry"/></mxCell><mxCell id="evWbAmLp9vaaNwUIvvT5-3" value="Movie Service" style="rounded=0;whiteSpace=wrap;html=1;" parent="1" vertex="1"><mxGeometry x="560" y="730" width="120" height="40" as="geometry"/></mxCell><mxCell id="46" style="edgeStyle=orthogonalEdgeStyle;rounded=0;orthogonalLoop=1;jettySize=auto;html=1;exitX=0.5;exitY=1;exitDx=0;exitDy=0;exitPerimeter=0;" parent="1" source="18" target="18" edge="1"><mxGeometry relative="1" as="geometry"/></mxCell><mxCell id="47" style="edgeStyle=orthogonalEdgeStyle;rounded=0;orthogonalLoop=1;jettySize=auto;html=1;exitX=0.5;exitY=1;exitDx=0;exitDy=0;exitPerimeter=0;" parent="1" source="22" target="22" edge="1"><mxGeometry relative="1" as="geometry"/></mxCell><mxCell id="48" value="IAM Server" style="rounded=0;whiteSpace=wrap;html=1;" parent="1" vertex="1"><mxGeometry x="200" y="760" width="120" height="40" as="geometry"/></mxCell></root></mxGraphModel></diagram></mxfile>